Patient4_TMGait_0pt4_01_right_25_EMG.mot
version=1
nRows=30
nColumns=33
inDegrees=no
endheader
time	1LAddLong	2LGlutMax	3LGlutMed	4LIliopsoas	5LSemiMemb	6LBicFemLong	7LRecFem	8LVastMed	9LVastLat	10LGasMed	11LTibAnt	12lTibPost	13LPeroneusLong	14LSol	15LExtDigLong	16LFlexDigLong	17RAddLong	18RGlutMax	19RGlutMed	20RIliopsoas	21RSemiMemb	22RBicFemLong	23RRecFem	24RVastMed	25RVastLat	26RGasMed	27RTibAnt	28RTibPost	29RPeroneusLong	30RSol	31RExtDigLong	32RFlexDigLong
32.617	-0.00946	0.17746	0.058136	-0.019226	-0.000153	-0.048523	0.28259	0.000305	0.066223	-0.013733	-0.022125	0.00824	0.016937	0.060883	-0.046692	0.003815	0.032654	-0.59357	-0.64896	0.20172	-0.066376	0.11704	0.1004	0.039825	-0.097046	0.06546	-0.007935	0.013885	-0.91782	-0.22919	-0.005188	0.000763
32.618	-0.00885	0.17975	0.063324	0.002747	0.008545	-0.037537	0.26566	0.003204	0.10086	-0.006104	0.13031	0.003204	0.02655	0.038757	-0.072937	0.005035	0.050964	-0.71091	-0.4689	0.14908	-0.12726	0.055389	0.11765	0.084534	-0.085144	0.044556	-0.016022	0.1088	-0.41092	-0.3154	-0.004578	-0.012207
32.619	-0.012665	0.15762	0.067444	0.011292	0.007629	-0.041809	0.25818	-0.002899	0.14954	-0.018158	0.14206	0.005035	-0.007935	0.036926	-0.063324	0.017242	0.031281	-0.82291	-0.54688	0.086212	0.090942	0.18143	0.049744	0.14648	-0.025177	0.033112	0.008392	0.11551	-0.053864	-0.32227	-0.002136	-0.00824
32.62	-0.018005	0.18509	0.070343	-0.010071	0.00885	-0.044098	0.25787	0.004578	0.16007	-0.019226	0.046844	0.007324	0.015411	0.022888	-0.097809	-0.002441	-0.039063	-0.83511	-0.3566	0.018768	0.30792	0.12207	0.022888	0.095978	0.018921	0.020294	0.054474	0.014191	-0.17105	-0.10544	-0.000153	-0.007782
32.621	-0.010529	0.15625	0.083618	-0.00412	0.006409	-0.032196	0.24674	0.00061	0.19608	-0.018311	-0.039063	0.010529	0.02655	0.021057	-0.16052	-0.001678	-0.064087	-0.89188	0.42114	-0.023651	-0.037994	0.091553	-0.035553	-0.000458	0.006561	-0.010071	0.018616	-0.12238	0.071411	0.016327	-0.002899	-0.014496
32.622	-0.014038	0.15427	0.11215	-0.000458	0.01297	-0.032349	0.26566	0.001068	0.20157	-0.010681	-0.08667	0.015717	0.027466	0.018311	-0.14175	-0.019684	-0.020905	-0.90546	0.65231	-0.050201	-0.24292	0.046692	-0.013733	0.049591	0.05188	-0.00824	-0.025482	0.004272	0.26016	0.005493	-0.001068	-0.017853
32.623	-0.010529	0.15976	0.10971	0.03891	0.007019	-0.035095	0.27344	-0.003967	0.21011	-0.011292	-0.046844	0.008392	0.03067	0.019073	-0.058136	0.006866	-0.015717	-0.89401	-0.18738	-0.034027	-0.072327	0.000763	0.17899	0.067139	0.015869	-0.002136	-0.010986	0.037537	0.54932	0.14511	-0.00412	-0.013733
32.624	-0.004578	0.15335	0.10666	0.022125	0.006409	-0.043945	0.31174	0.001221	0.22583	-0.009003	0.009308	0.010071	0.018616	0.005798	0.18234	0.001984	-0.027618	-0.95917	-0.26321	-0.071259	0.20462	-0.026855	0.19562	0.11261	0.029297	-0.013428	-0.007172	-0.39825	1.0101	0.003967	-0.000305	-0.00824
32.625	-0.003052	0.16022	0.09613	0.007629	0.006256	-0.014191	0.36423	-0.002136	0.23605	-0.004883	0.006714	0.005188	0.017242	0.016632	0.12878	-0.011597	0.004272	-0.94696	-0.83298	-0.039673	0.037537	-0.085297	0.11841	0.10941	0.054169	-0.021362	-0.01358	0.10513	0.16525	0.020905	-0.005493	-0.018768
32.626	-0.002899	0.15366	0.096588	-0.023193	0.014191	-0.027771	0.39581	0.000916	0.22858	0.003204	-0.022888	0.011292	0.002289	-0.002136	0.15091	-0.015259	-0.005188	-0.86945	-1.013	0.004272	-0.11566	-0.058441	-0.20523	0.04715	0.083008	-0.013275	0.054016	0.22522	-0.16144	0.30991	-0.005951	-0.016327
32.627	-0.004578	0.15717	0.075226	0.001373	0.012054	-0.043335	0.39856	0.000305	0.22369	0.008545	0.02594	0.011139	-0.047913	0.006104	0.006104	-0.006561	-0.026245	-0.84534	-0.81619	0.018158	-0.092621	-0.002594	-0.11429	0.063934	0.1062	-0.002289	0.039825	0.060577	-0.3717	0.42175	-0.00885	-0.005493
32.628	0.046234	0.22827	0.052032	0.012207	0.010223	-0.044708	0.44586	0.003662	0.22888	0.023346	0.056458	0.006104	-0.074768	0.009308	-0.23911	-0.013885	-0.015564	-0.81879	-0.89981	-0.018768	-0.057831	-0.079041	0.028839	0.12024	0.043335	-0.00061	0.06546	0.021667	-0.34225	0.27954	-0.001068	-0.000153
32.629	-0.026093	0.22736	0.036926	0.023651	0.003662	-0.040894	0.46356	-0.000916	0.24857	0.007324	0.040894	0.005188	-0.067596	0.045471	-0.073547	0.003967	0.006104	-0.73334	0.18082	-0.073242	-0.00061	-0.040436	-0.046997	-0.010223	-0.009003	-0.016632	0.11658	-0.001221	-0.23453	0.19073	-0.001678	-0.006561
32.63	0.004883	0.22949	0.009613	-0.003662	0.004883	-0.021057	0.43213	-0.003357	0.23392	-0.006256	0.088654	-0.000153	-0.018158	0.1004	0.08606	-0.007782	0.016785	-0.85098	0.012054	0.06958	-0.00824	-0.033875	-0.050964	-0.10407	0.018005	-0.01297	0.086823	-0.011444	0.32974	0.14267	-0.006256	0.000153
32.631	-0.010986	0.23392	-0.0177	-0.000458	0.005951	-0.034485	0.37796	0.002594	0.24933	-0.018921	0.050354	0.006104	0.084686	0.16205	0.13626	-0.006409	0.007019	-0.85113	-0.58243	0.13275	-0.14938	-0.094452	0.029602	-0.058746	-0.03891	-0.012054	0.075989	-0.030518	0.066376	-0.057526	-0.001831	-0.001373
32.632	0.002289	0.21698	-0.049591	-0.001526	0.002136	-0.015259	0.30411	-0.003815	0.25131	-0.042725	0.091248	0.004425	0.15808	0.1709	0.42801	-0.002136	-0.013733	-0.73852	-1.0045	0.062561	-0.3183	-0.24948	0.10712	-0.052643	-0.054626	0.002289	0.074768	-0.046082	0.45929	0.010681	-0.00351	-0.00061
32.633	0.001373	0.2002	-0.086975	-0.013885	0.005341	-0.036469	0.21561	-0.001831	0.25711	-0.089874	0.065002	0.007019	0.21179	0.21423	0.19608	-0.020142	-0.004578	-0.68756	-1.6223	-0.083466	-0.29572	-0.4042	0.10773	0.090485	-0.0177	-0.01236	0.014954	-0.06546	0.14755	-0.013123	-0.003967	-0.005188
32.634	0.006409	0.21759	-0.12466	-0.008545	0.001526	-0.02121	0.19043	-0.003204	0.2507	-0.052338	0.13855	0.008087	0.092316	0.13397	0.74616	-0.014038	0.014648	-0.48065	-1.4819	-0.096741	0.19287	-0.40359	-0.035858	0.20477	0.024567	-0.011292	-0.010834	-0.067902	-0.64041	-0.21088	-0.003967	0.004883
32.635	0.011292	0.20325	-0.1561	-0.011749	0.001068	-0.001221	0.14038	-0.001526	0.25589	-0.017242	0.23438	0.007477	0.016632	0.13641	-0.47394	-0.016022	-0.015106	-0.32852	-0.68832	-0.12756	0.54306	-0.071869	-0.079498	0.13123	0.001221	-0.038757	0.002594	-0.21271	-1.1037	-0.13504	-0.004272	0.005493
32.636	0.005188	0.15656	-0.17395	-0.011597	0.000763	-0.031891	0.11185	0	0.25635	-0.039063	0.15671	0.004425	0.030518	0.073395	-0.37384	-0.005798	0.002289	-0.25696	-0.35843	-0.024872	0.36346	0.24933	0.073547	0.041962	0.073395	-0.082397	0.030975	0.001678	-0.57358	-0.43793	-0.004578	-0.009308
32.637	0.001984	0.12589	-0.15808	0.009003	0.004425	-0.019989	0.17746	0.008392	0.25055	-0.029907	-0.12222	0.004578	0.086365	-0.004883	-0.14893	-0.022125	0.033875	-0.23361	0.009918	-0.046997	-0.054932	0.58258	0.16693	0.020905	0.14435	-0.0383	-0.023041	-0.045776	0.4834	-0.52277	-0.001831	-0.015564
32.638	-0.001678	0.087585	-0.17578	0.00351	0.005035	-0.015869	0.25497	0.001831	0.25971	-0.023193	-0.24384	0.004272	0.039673	0.019226	0.13733	-0.012512	-0.011139	-0.097351	-0.55679	-0.033112	-0.36163	0.52307	0.20065	0.092926	0.021515	0.035858	0.053253	0.36697	0.16434	0.005798	-0.000916	-0.019073
32.639	-0.005035	0.076752	-0.18997	0.006104	0.001984	-0.00473	0.28214	-0.005341	0.25192	-0.046234	0.004883	0.004425	0.045013	-0.005188	-0.55512	-0.006409	0.003204	0.054932	-0.73807	0.033417	-0.28275	0.35416	-0.17609	-0.043793	-0.020447	0.074768	0.030212	0.15823	0.32822	0.19196	-0.004272	-0.000916
32.64	-0.006104	0.046692	-0.15793	0.008698	0.001526	0.006409	0.30594	0.005798	0.23163	-0.040436	0.002594	0.001831	0.048523	-0.024109	-0.82245	-0.001221	0	0.15671	0.18982	0.004272	-0.17639	0.15793	-0.50064	0.047913	0.076599	0.035095	0.008087	0.013733	0.30182	0.32913	0.001984	0.001984
32.641	-0.014191	-0.023041	-0.14328	0.006866	0.005646	-0.023499	0.30945	-0.001068	0.23468	-0.041351	-0.022736	0.002747	0.069427	0.070953	-0.67261	-0.033722	-0.029297	0.21759	0.51987	-0.022583	0.11368	-0.074768	-0.55008	0.067749	0.14175	-0.020447	0.022583	-0.093994	0.25909	0.10681	-0.004272	0.019989
32.642	-0.006256	-0.037842	-0.12558	0.009308	0.000763	-0.000305	0.29953	0.010834	0.20386	-0.049438	-0.03418	0.003204	0.079803	-0.065308	-0.17319	-0.027161	-0.037842	0.30045	0.14496	-0.042419	0.17136	-0.18845	-0.43457	0.11749	0.24796	0.004425	0.035706	0.017548	-0.14389	-0.020752	-0.003052	0.014191
32.643	-0.006866	-0.095673	-0.091705	0.010223	0.001678	-0.004272	0.25589	0.019989	0.20172	-0.038452	-0.11902	-0.007019	0.14465	-0.048065	-0.15366	-0.014801	-0.045013	0.32669	0.15808	-0.065155	0.30731	-0.16876	-0.20599	0.10788	0.2182	-0.006104	0.038757	0.013885	-0.092621	0.003357	0.002594	0.008392
32.644	-0.003967	-0.067444	-0.08255	0.013733	0.004425	-0.022736	0.22964	0.018463	0.17685	-0.024719	-0.32044	-0.003204	0.16495	-0.042572	0.002136	-0.012512	-0.035095	0.50064	-0.46753	-0.01297	0.16327	0.002136	0.017853	0.082397	0.17746	-0.002899	0.020142	0.020752	0.12909	-0.10071	-0.003052	0.017853
32.645	-0.005188	-0.085907	-0.098724	0.006561	-0.001373	-0.013275	0.2504	0.017548	0.16953	-0.031891	-0.23575	0.002136	0.14862	-0.036011	0.031891	-0.006866	0.001526	0.65506	-0.50003	0.04425	-0.17548	0.000916	0.10788	-0.0354	0.10056	-0.001984	0.023346	0.014191	0.14908	-0.06134	-0.003357	0.009613
32.646	-0.005035	-0.11612	-0.096283	-0.0177	0.003815	-0.010681	0.27878	0.011139	0.17227	-0.000916	-0.093231	-0.001984	0.014648	-0.12344	0.12405	-0.010071	0.019836	0.72113	-0.23773	0.055542	-0.024719	-0.1178	0.065613	-0.072479	0.037231	0.017242	0.028534	-0.014038	0.1297	-0.035095	-0.002747	0.014038
